<svg width="55" height="55" viewBox="0 0 50 48" fill="none" xmlns="http://www.w3.org/2000/svg">
<path d="M45.0529 33.888L45.0495 33.8822L30.2801 8.18669L30.2742 8.17643C28.9984 5.99421 27.1121 4.54321 24.8993 4.54321C22.6865 4.54321 20.8001 5.99421 19.5244 8.17643L19.5184 8.18669L4.75178 33.8773C3.47158 36.0701 3.15902 38.4387 4.26045 40.3634C5.36321 42.2905 7.56553 43.2173 10.1007 43.2173H39.6396C42.1774 43.2173 44.374 42.2893 45.4837 40.3695C46.5919 38.4524 46.3039 36.0857 45.0529 33.888Z" fill="url(#paint0_linear_105_2)" stroke="#EAEAEA" stroke-width="3.22435"></path>
<path d="M26.9632 29.8011L28.8821 33.0574L29.9869 28.173L28.0099 26.3122C29.8124 19.8578 24.8699 16.1364 24.8699 16.1364C24.8699 16.1364 19.9274 19.8578 21.7299 26.3122L19.7529 28.173L20.8577 33.0574L22.7766 29.8011C25.2188 35.3833 21.0903 41.6051 21.0903 41.6051H28.7076C28.7076 41.6051 24.5792 35.3833 26.9632 29.8011ZM24.8699 22.4163C25.1606 22.4163 25.4514 22.5326 25.7421 22.6489C25.9747 22.8234 26.2073 23.056 26.3236 23.3467C26.4399 23.6374 26.498 23.9282 26.4399 24.2189C26.3817 24.5097 26.2073 24.8004 26.0329 25.033C25.8003 25.2656 25.5677 25.3819 25.2188 25.44C24.9281 25.4982 24.6373 25.4982 24.3466 25.3819C24.0558 25.2656 23.8232 25.0911 23.6488 24.8004C23.4744 24.5678 23.4162 24.2771 23.3581 23.9282C23.3581 23.6956 23.4162 23.5211 23.4744 23.3467C23.5325 23.1723 23.6488 22.9978 23.8232 22.8234C23.9395 22.7071 24.114 22.5908 24.3466 22.4745C24.4629 22.4163 24.6955 22.4163 24.8699 22.4163Z" fill="white"></path>
<path fill-rule="evenodd" clip-rule="evenodd" d="M17.5435 41.605H23.5908C25.4515 35.9065 23.2419 30.0336 22.6604 29.6847C22.7186 29.7428 24.8119 33.755 20.6834 39.7442C19.9856 40.7909 18.8227 41.4305 17.5435 41.605Z" fill="url(#paint1_linear_105_2)"></path>
<path fill-rule="evenodd" clip-rule="evenodd" d="M29.0564 39.7442C24.9279 33.755 27.0212 29.7428 27.0794 29.6847C26.4979 30.0336 24.2301 35.9646 26.149 41.605H32.1963C30.9171 41.4305 29.7542 40.7909 29.0564 39.7442Z" fill="url(#paint2_linear_105_2)"></path>
<path opacity="0.5" d="M28.9404 32.9992L29.1149 29.2196L26.5564 26.6029C28.359 24.277 27.8356 18.8693 24.8701 16.0782C24.8701 16.0782 29.8126 19.7996 28.0101 26.254L29.9871 28.1148L28.9404 32.9992Z" fill="url(#paint3_linear_105_2)"></path>
<path opacity="0.5" d="M19.7529 28.1148L21.7299 26.254C19.9274 19.7996 24.8699 16.0782 24.8699 16.0782C21.9625 18.8693 21.4392 24.3352 23.1836 26.6029L20.6251 29.2196L20.7996 32.9992L19.7529 28.1148Z" fill="url(#paint4_linear_105_2)"></path>
<defs>
<linearGradient id="paint0_linear_105_2" x1="5.37915" y1="5.64659" x2="35.1334" y2="52.2751" gradientUnits="userSpaceOnUse">
<stop stop-color="#59009E"></stop>
<stop offset="0.5" stop-color="#8A4BA0"></stop>
<stop offset="1" stop-color="#FF9900"></stop>
</linearGradient>
<linearGradient id="paint1_linear_105_2" x1="20.7881" y1="41.0235" x2="22.3639" y2="26.254" gradientUnits="userSpaceOnUse">
<stop stop-color="white"></stop>
<stop offset="1" stop-color="#3076FF"></stop>
</linearGradient>
<linearGradient id="paint2_linear_105_2" x1="28.9343" y1="41.0235" x2="27.3585" y2="26.254" gradientUnits="userSpaceOnUse">
<stop stop-color="white"></stop>
<stop offset="1" stop-color="#3076FF"></stop>
</linearGradient>
<linearGradient id="paint3_linear_105_2" x1="32.4177" y1="17.5958" x2="25.6202" y2="26.1668" gradientUnits="userSpaceOnUse">
<stop stop-color="#3076FF"></stop>
<stop offset="1" stop-color="white"></stop>
</linearGradient>
<linearGradient id="paint4_linear_105_2" x1="17.3282" y1="17.6017" x2="24.1198" y2="26.1668" gradientUnits="userSpaceOnUse">
<stop stop-color="#3076FF"></stop>
<stop offset="1" stop-color="white"></stop>
</linearGradient>
</defs>
</svg>
